/* XPM */
static char *_bbeb89c9a6c4257eff199176d366be8sOCCqtWLJPUTT2YM[] = {
/* columns rows colors chars-per-pixel */
"64 64 7 1 ",
"  c None",
". c #222222",
"X c #DC4A7B",
"o c #417089",
"O c #72D6CE",
"+ c #F78697",
"@ c #FDF7ED",
/* pixels */
"                                                                ",
"                                                                ",
"                                                                ",
"                                                                ",
"                                                                ",
"                                                                ",
"                                                                ",
"                                                                ",
"                                                                ",
"                                                                ",
"                                                                ",
"                                                                ",
"                                                                ",
"                                                                ",
"                                                                ",
"                                                                ",
"                    ............                                ",
"                    ............                                ",
"                  ..XXXX++++++++..                              ",
"                  ..XXXX++++++++..                              ",
"                ..XX....XXXX++++++..                            ",
"                ..XX....XXXX++++++..                            ",
"                  ..    ..XXXX++++..                            ",
"                  ..    ..XXXX++++..                            ",
"                      ......XXXX..........                      ",
"                      ......XXXX..........                      ",
"                      ..OOOOOOOOOOOO@@@@..                      ",
"                      ..OOOOOOOOOOOO@@@@..                      ",
"                      ..OOOOoooooooooooo......                  ",
"                      ..OOOOoooooooooooo......                  ",
"                      ..OOOOooOOOOOOOOOO@@@@..                  ",
"                      ..OOOOooOOOOOOOOOO@@@@..                  ",
"                      ..OOOOooOOooOOooOOoo@@..                  ",
"                      ..OOOOooOOooOOooOOoo@@..                  ",
"                      ..OOOOooOOooOOooOOoo@@..                  ",
"                      ..OOOOooOOooOOooOOoo@@..                  ",
"                      ..OOOOooOOooOOooOOoo@@..                  ",
"                      ..OOOOooOOooOOooOOoo@@..                  ",
"                      ..OOOOooOOOOOOOOOO@@@@..                  ",
"                      ..OOOOooOOOOOOOOOO@@@@..                  ",
"                      ..OOOOoooooooooooo......                  ",
"                      ..OOOOoooooooooooo......                  ",
"                      ..OOOOOOOOOOOOOO@@..                      ",
"                      ..OOOOOOOOOOOOOO@@..                      ",
"                      ..ooooooooooooooOO..                      ",
"                      ..ooooooooooooooOO..                      ",
"                      ..OOOOOOOOOOOOOO@@..                      ",
"                      ..OOOOOOOOOOOOOO@@..                      ",
"                      ..OOOOOOOOOOOOOO@@..                      ",
"                      ..OOOOOOOOOOOOOO@@..                      ",
"                      ..oooo........oooo..                      ",
"                      ..oooo........oooo..                      ",
"                      ..oo..        ......                      ",
"                      ..oo..        ......                      ",
"                      ....                                      ",
"                      ....                                      ",
"                                                                ",
"                                                                ",
"                                                                ",
"                                                                ",
"                                                                ",
"                                                                ",
"                                                                ",
"                                                                "
};
