/* XPM */
static char *_d5bc7c157d84eedebba0e5c67aec3e2Sj0uN1PxYxoHNDF2[] = {
/* columns rows colors chars-per-pixel */
"64 64 7 1 ",
"  c None",
". c #222222",
"X c #DC4A7B",
"o c #417089",
"O c #72D6CE",
"+ c #F78697",
"@ c #FDF7ED",
/* pixels */
"                                                                ",
"                                                                ",
"                                                                ",
"                                                                ",
"                                                                ",
"                                                                ",
"                                                                ",
"                                                                ",
"                                                                ",
"                                                                ",
"                                                                ",
"                                                                ",
"                                                                ",
"                                                                ",
"                    ............                                ",
"                    ............                                ",
"                  ..XXXX++++++++..                              ",
"                  ..XXXX++++++++..                              ",
"                ..XX....XXXX++++++..                            ",
"                ..XX....XXXX++++++..                            ",
"                  ..    ..XXXX++++..                            ",
"                  ..    ..XXXX++++..                            ",
"                      ......XXXX........                        ",
"                      ......XXXX........                        ",
"                      ..OOOOOOOOOOOO@@@@......                  ",
"                      ..OOOOOOOOOOOO@@@@......                  ",
"                      ..OOOOooOOOOOOOOOO@@@@..                  ",
"                      ..OOOOooOOOOOOOOOO@@@@..                  ",
"                      ..OOOOooOOooOOooOOoo@@..                  ",
"                      ..OOOOooOOooOOooOOoo@@..                  ",
"                      ..OOOOooOOooOOooOOoo@@..                  ",
"                      ..OOOOooOOooOOooOOoo@@..                  ",
"                      ..OOOOooOOooOOooOOoo@@..                  ",
"                      ..OOOOooOOooOOooOOoo@@..                  ",
"                      ..OOOOooOOOOOOOOOO@@@@..                  ",
"                      ..OOOOooOOOOOOOOOO@@@@..                  ",
"                      ..OOOOoooooooooooo......                  ",
"                      ..OOOOoooooooooooo......                  ",
"                      ..OOOOoooooooooooo..                      ",
"                      ..OOOOoooooooooooo..                      ",
"                      ..OOOOOOOOOOOOOO@@..                      ",
"                      ..OOOOOOOOOOOOOO@@..                      ",
"                      ..ooooooooooooooOO..                      ",
"                      ..ooooooooooooooOO..                      ",
"                      ..OOOOOOOOOOOOOO@@..                      ",
"                      ..OOOOOOOOOOOOOO@@..                      ",
"                      ..OOOOOOOOOOOOOO@@..                      ",
"                      ..OOOOOOOOOOOOOO@@..                      ",
"                    ..oooooo..........oooo..                    ",
"                    ..oooooo..........oooo..                    ",
"                    ..oo....          ......                    ",
"                    ..oo....          ......                    ",
"                    ....                                        ",
"                    ....                                        ",
"                                                                ",
"                                                                ",
"                                                                ",
"                                                                ",
"                                                                ",
"                                                                ",
"                                                                ",
"                                                                ",
"                                                                ",
"                                                                "
};
