/* XPM */
static char *_ea9d26802b54d44c8fc38706788c0796nmU4JhnGw4tVPh6[] = {
/* columns rows colors chars-per-pixel */
"64 64 7 1 ",
"  c None",
". c #222222",
"X c #DC4A7B",
"o c #417089",
"O c #72D6CE",
"+ c #F78697",
"@ c #FDF7ED",
/* pixels */
"                                                                ",
"                                                                ",
"                                                                ",
"                                                                ",
"                                                                ",
"                                                                ",
"                                                                ",
"                                                                ",
"                                                                ",
"                                                                ",
"                                                                ",
"                                                                ",
"                                                                ",
"                                                                ",
"                  ..............                                ",
"                  ..............                                ",
"                ..XXXXXX++++++++..                              ",
"                ..XXXXXX++++++++..                              ",
"                  ......XXXX++++++..                            ",
"                  ......XXXX++++++..                            ",
"                        ..XXXX++++..                            ",
"                        ..XXXX++++..                            ",
"                          ..XXXX..                              ",
"                          ..XXXX..                              ",
"                      ..................                        ",
"                      ..................                        ",
"                      ..OOOOOOOOOOOO@@@@......                  ",
"                      ..OOOOOOOOOOOO@@@@......                  ",
"                      ..OOOOooOOOOOOOOOO@@@@..                  ",
"                      ..OOOOooOOOOOOOOOO@@@@..                  ",
"                      ..OOOOooOOooOOooOOoo@@..                  ",
"                      ..OOOOooOOooOOooOOoo@@..                  ",
"                      ..OOOOooOOooOOooOOoo@@..                  ",
"                      ..OOOOooOOooOOooOOoo@@..                  ",
"                      ..OOOOooOOooOOooOOoo@@..                  ",
"                      ..OOOOooOOooOOooOOoo@@..                  ",
"                      ..OOOOooOOOOOOOOOO@@@@..                  ",
"                      ..OOOOooOOOOOOOOOO@@@@..                  ",
"                      ..OOOOoooooooooooo......                  ",
"                      ..OOOOoooooooooooo......                  ",
"                      ..OOOOoooooooooooo..                      ",
"                      ..OOOOoooooooooooo..                      ",
"                      ..OOOOOOOOOOOOOO@@..                      ",
"                      ..OOOOOOOOOOOOOO@@..                      ",
"                      ..ooooooooooooooOO..                      ",
"                      ..ooooooooooooooOO..                      ",
"                      ..OOOOOOOOOOOOOO@@..                      ",
"                      ..OOOOOOOOOOOOOO@@..                      ",
"                    ....OOOOOOOOOOOOOO@@..                      ",
"                    ....OOOOOOOOOOOOOO@@..                      ",
"                  ..oooooooo........oooo..                      ",
"                  ..oooooooo........oooo..                      ",
"                  ..........        ..oo..                      ",
"                  ..........        ..oo..                      ",
"                                      ....                      ",
"                                      ....                      ",
"                                                                ",
"                                                                ",
"                                                                ",
"                                                                ",
"                                                                ",
"                                                                ",
"                                                                ",
"                                                                "
};
