/* XPM */
static char *b1cea6459fd3415bb1a58433c197d00cBI8Hc6YKIgwqqtcP[] = {
/* columns rows colors chars-per-pixel */
"64 64 7 1 ",
"  c None",
". c #222222",
"X c #DC4A7B",
"o c #417089",
"O c #72D6CE",
"+ c #F78697",
"@ c #FDF7ED",
/* pixels */
"                                                                ",
"                                                                ",
"                                                                ",
"                                                                ",
"                          ..                                    ",
"                          ..                                    ",
"                        ..XX..                                  ",
"                        ..XX..                                  ",
"                      ..XX..                                    ",
"                      ..XX..                                    ",
"                      ..XX..                                    ",
"                      ..XX..                                    ",
"                    ..XX++..                                    ",
"                    ..XX++..                                    ",
"                    ..XX++++..                                  ",
"                    ..XX++++..                                  ",
"                    ..XXXX++++..                                ",
"                    ..XXXX++++..                                ",
"                    ....XX++++..                                ",
"                    ....XX++++..                                ",
"                      ..XXXX..                                  ",
"                      ..XXXX..                                  ",
"                    ....................                        ",
"                    ....................                        ",
"                    ..OOOOOOOOOOOO@@@@..                        ",
"                    ..OOOOOOOOOOOO@@@@..                        ",
"                    ..OOOOoooooooooooo......                    ",
"                    ..OOOOoooooooooooo......                    ",
"                    ..OOOOooOOOOOOOOOO@@@@..                    ",
"                    ..OOOOooOOOOOOOOOO@@@@..                    ",
"                    ..OOOOooOOooOOooOOoo@@..                    ",
"                    ..OOOOooOOooOOooOOoo@@..                    ",
"                    ..OOOOooOOooOOooOOoo@@..                    ",
"                    ..OOOOooOOooOOooOOoo@@..                    ",
"                    ..OOOOooOOooOOooOOoo@@..                    ",
"                    ..OOOOooOOooOOooOOoo@@..                    ",
"                    ..OOOOooOOOOOOOOOO@@@@..                    ",
"                    ..OOOOooOOOOOOOOOO@@@@..                    ",
"                    ..OOOOoooooooooooo......                    ",
"                    ..OOOOoooooooooooo......                    ",
"                    ..OOOOOOOOOOOOOO@@..                        ",
"                    ..OOOOOOOOOOOOOO@@..                        ",
"                  ......ooooooooooooooOO......                  ",
"                  ......ooooooooooooooOO......                  ",
"                  ..oo..OOOOOOOOOOOOOO@@..oo..                  ",
"                  ..oo..OOOOOOOOOOOOOO@@..oo..                  ",
"                  ..ooooOOOOOOOOOOOOOO@@oooo..                  ",
"                  ..ooooOOOOOOOOOOOOOO@@oooo..                  ",
"                  ............................                  ",
"                  ............................                  ",
"                                                                ",
"                                                                ",
"                                                                ",
"                                                                ",
"                                                                ",
"                                                                ",
"                                                                ",
"                                                                ",
"                                                                ",
"                                                                ",
"                                                                ",
"                                                                ",
"                                                                ",
"                                                                "
};
