/* XPM */
static char *result[] = {
/* columns rows colors chars-per-pixel */
"32 32 8 1 ",
"  c #181425",
". c #193C3E",
"X c #262B44",
"o c #265C42",
"O c #3E8948",
"+ c #63C74D",
"@ c white",
"# c None",
/* pixels */
"################################",
"################################",
"################################",
"################################",
"################################",
"################################",
"################################",
"################################",
"################################",
"################################",
"########++@@@@++++++++++########",
"########++@@@@++++++++++########",
"######++@@++++++OOOOOOOOOO######",
"######++@@++++++OOOOOOOOOO######",
"######++++++OOOOOOOOOOOOOO######",
"######++++++OOOOOOOOOOOOOO######",
"####OOOO++++++OO++++OOOOOOOO####",
"####OOOO++++++OO++++OOOOOOOO####",
"####OOOOOOOOOOOOOOOOOO@@XXOO####",
"####OOOOOOOOOOOOOOOOOO@@XXOO####",
"##OOOOOOooooooooooooooXX  OOOO##",
"##OOOOOOooooooooooooooXX  OOOO##",
"##OOoooooooooooooooooooooo..OO##",
"##OOoooooooooooooooooooooo..OO##",
"##OOoooooooooooooooooooooo..OO##",
"##OOoooooooooooooooooooooo..OO##",
"##oooooooooooooooooooooo......##",
"##oooooooooooooooooooooo......##",
"####oooooooooooooooo........####",
"####oooooooooooooooo........####",
"########....oo..........########",
"########....oo..........########"
};
