/* XPM */
static char *result[] = {
/* columns rows colors chars-per-pixel */
"64 64 6 1 ",
"  c #193C3E",
". c #265C42",
"X c #3E8948",
"o c #63C74D",
"O c white",
"+ c None",
/* pixels */
"++++++++++++++++++++++++++++++++++++++++++++++++++++++++++++++++",
"++++++++++++++++++++++++++++++++++++++++++++++++++++++++++++++++",
"++++++++++++++++++++++++++++++++++++++++++++++++++++++++++++++++",
"++++++++++++++++++++++++++++++++++++++++++++++++++++++++++++++++",
"++++++++++++++++++++++++++++++++++++++++++++++++++++++++++++++++",
"++++++++++++++++++++++++++++++++++++++++++++++++++++++++++++++++",
"++++++++++++++++++++++++++++++++++++++++++++++++++++++++++++++++",
"++++++++++++++++++++++++++++++++++++++++++++++++++++++++++++++++",
"++++++++++++++++++++++++++++++++++++++++++++++++++++++++++++++++",
"++++++++++++++++++++++++++++++++++++++++++++++++++++++++++++++++",
"++++++++++++++++++++++++++++++++++++++++++++++++++++++++++++++++",
"++++++++++++++++++++++++++++++++++++++++++++++++++++++++++++++++",
"++++++++++++++++++++++++++++++++++++++++++++++++++++++++++++++++",
"++++++++++++++++++++++++++++++++++++++++++++++++++++++++++++++++",
"++++++++++++++++++++++++++++++++++++++++++++++++++++++++++++++++",
"++++++++++++++++++++++++++++++++++++++++++++++++++++++++++++++++",
"++++++++++++++++++++++++++++++++++++++++++++++++++++++++++++++++",
"++++++++++++++++++++++++++++++++++++++++++++++++++++++++++++++++",
"++++++++++++++++++++++++++++++++++++++++++++++++++++++++++++++++",
"++++++++++++++++++++++++++++++++++++++++++++++++++++++++++++++++",
"++++++++++++++++ooooOOOOOOOOoooooooooooooooooooo++++++++++++++++",
"++++++++++++++++ooooOOOOOOOOoooooooooooooooooooo++++++++++++++++",
"++++++++++++++++ooooOOOOOOOOoooooooooooooooooooo++++++++++++++++",
"++++++++++++++++ooooOOOOOOOOoooooooooooooooooooo++++++++++++++++",
"++++++++++++ooooOOOOooooooooooooXXXXXXXXXXXXXXXXXXXX++++++++++++",
"++++++++++++ooooOOOOooooooooooooXXXXXXXXXXXXXXXXXXXX++++++++++++",
"++++++++++++ooooOOOOooooooooooooXXXXXXXXXXXXXXXXXXXX++++++++++++",
"++++++++++++ooooOOOOooooooooooooXXXXXXXXXXXXXXXXXXXX++++++++++++",
"++++++++++++ooooooooooooXXXXXXXXXXXXXXXXXXXXXXXXXXXX++++++++++++",
"++++++++++++ooooooooooooXXXXXXXXXXXXXXXXXXXXXXXXXXXX++++++++++++",
"++++++++++++ooooooooooooXXXXXXXXXXXXXXXXXXXXXXXXXXXX++++++++++++",
"++++++++++++ooooooooooooXXXXXXXXXXXXXXXXXXXXXXXXXXXX++++++++++++",
"++++++++XXXXXXXXooooooooooooXXXXooooooooXXXXXXXXXXXXXXXX++++++++",
"++++++++XXXXXXXXooooooooooooXXXXooooooooXXXXXXXXXXXXXXXX++++++++",
"++++++++XXXXXXXXooooooooooooXXXXooooooooXXXXXXXXXXXXXXXX++++++++",
"++++++++XXXXXXXXooooooooooooXXXXooooooooXXXXXXXXXXXXXXXX++++++++",
"++++++++XXXXXXXXXXXXXXXXXXXXXXXXXXXXXXXXXXXXXXXXXXXXXXXX++++++++",
"++++++++XXXXXXXXXXXXXXXXXXXXXXXXXXXXXXXXXXXXXXXXXXXXXXXX++++++++",
"++++++++XXXXXXXXXXXXXXXXXXXXXXXXXXXXXXXXXXXXXXXXXXXXXXXX++++++++",
"++++++++XXXXXXXXXXXXXXXXXXXXXXXXXXXXXXXXXXXXXXXXXXXXXXXX++++++++",
"++++XXXXXXXXXXXX................................XXXXXXXXXXXX++++",
"++++XXXXXXXXXXXX................................XXXXXXXXXXXX++++",
"++++XXXXXXXXXXXX................................XXXXXXXXXXXX++++",
"++++XXXXXXXXXXXX................................XXXXXXXXXXXX++++",
"++++XXXX............................................    XXXX++++",
"++++XXXX............................................    XXXX++++",
"++++XXXX............................................    XXXX++++",
"++++XXXX............................................    XXXX++++",
"++++XXXX............................................    XXXX++++",
"++++XXXX............................................    XXXX++++",
"++++XXXX............................................    XXXX++++",
"++++XXXX............................................    XXXX++++",
"++++............................................            ++++",
"++++............................................            ++++",
"++++............................................            ++++",
"++++............................................            ++++",
"++++++++................................                ++++++++",
"++++++++................................                ++++++++",
"++++++++................................                ++++++++",
"++++++++................................                ++++++++",
"++++++++++++++++        ....                    ++++++++++++++++",
"++++++++++++++++        ....                    ++++++++++++++++",
"++++++++++++++++        ....                    ++++++++++++++++",
"++++++++++++++++        ....                    ++++++++++++++++"
};
