/* XPM */
static char *result[] = {
/* columns rows colors chars-per-pixel */
"48 48 9 1 ",
"  c #181425",
". c #193C3E",
"X c #262B44",
"o c #265C42",
"O c #3E8948",
"+ c #63C74D",
"@ c #C0CBDC",
"# c white",
"$ c None",
/* pixels */
"$$$$$$$$$$$$$$$$$$$$$$$$$$$$$$$$$$$$$$$$$$$$$$$$",
"$$$$$$$$$$$$$$$$$$$$$$$$$$$$$$$$$$$$$$$$$$$$$$$$",
"$$$$$$$$$$$$$$$$$$$$$$$$$$$$$$$$$$$$$$$$$$$$$$$$",
"$$$$$$$$$$$$$$$$$$$$$$$$$$$$$$$$$$$$$$$$$$$$$$$$",
"$$$$$$$$$$$$$$$$$$$$$$$$$$$$$$$$$$$$$$$$$$$$$$$$",
"$$$$$$$$$$$$$$$$$$$$$$$$$$$$$$$$$$$$$$$$$$$$$$$$",
"$$$$$$$$$$$$$$$$$$$$$$$$$$$$$$$$$$$$$$$$$$$$$$$$",
"$$$$$$$$$$$$$$$$$$$$$$$$$$$$$$$$$$$$$$$$$$$$$$$$",
"$$$$$$$$$$$$$$$$$$$$$$$$$$$$$$$$$$$$$$$$$$$$$$$$",
"$$$$$$$$$$$$$$$$$$$$$$$$$$$$$$$$$$$$$$$$$$$$$$$$",
"$$$$$$$$$$$$$$$$$$$$$$$$$$$$$$$$$$$$$$$$$$$$$$$$",
"$$$$$$$$$$$$$$$$$$$$$$$$$$$$$$$$$$$$$$$$$$$$$$$$",
"$$$$$$$$$$$$$$$$$$$$$$$$$$$$$$$$$$$$$$$$$$$$$$$$",
"$$$$$$$$$$$$$$$$$$$$$$$$$$$$$$$$$$$$$$$$$$$$$$$$",
"$$$$$$$$$$$$$$$$$$$$$$$$$$$$$$$$$$$$$$$$$$$$$$$$",
"$$$$$$$$$$$$+++######+++++++++++++++$$$$$$$$$$$$",
"$$$$$$$$$$$$+++######+++++++++++++++$$$$$$$$$$$$",
"$$$$$$$$$$$$+++######+++++++++++++++$$$$$$$$$$$$",
"$$$$$$$$$+++###+++++++++OOOOOOOOOOOOOOO$$$$$$$$$",
"$$$$$$$$$+++###+++++++++OOOOOOOOOOOOOOO$$$$$$$$$",
"$$$$$$$$$+++###+++++++++OOOOOOOOOOOOOOO$$$$$$$$$",
"$$$$$$$$$+++++++++OOOOOOOOOOOOOOOOOOOOO$$$$$$$$$",
"$$$$$$$$$+++++++++OOOOOOOOOOOOOOOOOOOOO$$$$$$$$$",
"$$$$$$$$$+++++++++OOOOOOOOOOOOOOOOOOOOO$$$$$$$$$",
"$$$$$$OOOOOO+++++++++OOO++++++OOOOOOOOOOOO$$$$$$",
"$$$$$$OOOOOO+++++++++OOO++++++OOOOOOOOOOOO$$$$$$",
"$$$$$$OOOOOO+++++++++OOO++++++OOOOOOOOOOOO$$$$$$",
"$$$$$$OOOOOOOOO@@@XXXOOOOOO@@@XXXOOOOOOOOO$$$$$$",
"$$$$$$OOOOOOOOO@@@XXXOOOOOO@@@XXXOOOOOOOOO$$$$$$",
"$$$$$$OOOOOOOOO@@@XXXOOOOOO@@@XXXOOOOOOOOO$$$$$$",
"$$$OOOOOOOOOoooXXX   ooooooXXX   oooOOOOOOOOO$$$",
"$$$OOOOOOOOOoooXXX   ooooooXXX   oooOOOOOOOOO$$$",
"$$$OOOOOOOOOoooXXX   ooooooXXX   oooOOOOOOOOO$$$",
"$$$OOOooooooooooooooooooooooooooooooooo...OOO$$$",
"$$$OOOooooooooooooooooooooooooooooooooo...OOO$$$",
"$$$OOOooooooooooooooooooooooooooooooooo...OOO$$$",
"$$$OOOooooooooooooooooooooooooooooooooo...OOO$$$",
"$$$OOOooooooooooooooooooooooooooooooooo...OOO$$$",
"$$$OOOooooooooooooooooooooooooooooooooo...OOO$$$",
"$$$ooooooooooooooooooooooooooooooooo.........$$$",
"$$$ooooooooooooooooooooooooooooooooo.........$$$",
"$$$ooooooooooooooooooooooooooooooooo.........$$$",
"$$$$$$oooooooooooooooooooooooo............$$$$$$",
"$$$$$$oooooooooooooooooooooooo............$$$$$$",
"$$$$$$oooooooooooooooooooooooo............$$$$$$",
"$$$$$$$$$$$$......ooo...............$$$$$$$$$$$$",
"$$$$$$$$$$$$......ooo...............$$$$$$$$$$$$",
"$$$$$$$$$$$$......ooo...............$$$$$$$$$$$$"
};
