/* XPM */
static char *result[] = {
/* columns rows colors chars-per-pixel */
"48 48 6 1 ",
"  c #193C3E",
". c #265C42",
"X c #3E8948",
"o c #63C74D",
"O c white",
"+ c None",
/* pixels */
"++++++++++++++++++++++++++++++++++++++++++++++++",
"++++++++++++++++++++++++++++++++++++++++++++++++",
"++++++++++++++++++++++++++++++++++++++++++++++++",
"++++++++++++++++++++++++++++++++++++++++++++++++",
"++++++++++++++++++++++++++++++++++++++++++++++++",
"++++++++++++++++++++++++++++++++++++++++++++++++",
"++++++++++++++++++++++++++++++++++++++++++++++++",
"++++++++++++++++++++++++++++++++++++++++++++++++",
"++++++++++++++++++++++++++++++++++++++++++++++++",
"++++++++++++++++++++++++++++++++++++++++++++++++",
"++++++++++++++++++++++++++++++++++++++++++++++++",
"++++++++++++++++++++++++++++++++++++++++++++++++",
"++++++++++++++++++++++++++++++++++++++++++++++++",
"++++++++++++++++++++++++++++++++++++++++++++++++",
"++++++++++++++++++++++++++++++++++++++++++++++++",
"++++++++++++oooOOOOOOooooooooooooooo++++++++++++",
"++++++++++++oooOOOOOOooooooooooooooo++++++++++++",
"++++++++++++oooOOOOOOooooooooooooooo++++++++++++",
"+++++++++oooOOOoooooooooXXXXXXXXXXXXXXX+++++++++",
"+++++++++oooOOOoooooooooXXXXXXXXXXXXXXX+++++++++",
"+++++++++oooOOOoooooooooXXXXXXXXXXXXXXX+++++++++",
"+++++++++oooooooooXXXXXXXXXXXXXXXXXXXXX+++++++++",
"+++++++++oooooooooXXXXXXXXXXXXXXXXXXXXX+++++++++",
"+++++++++oooooooooXXXXXXXXXXXXXXXXXXXXX+++++++++",
"++++++XXXXXXoooooooooXXXooooooXXXXXXXXXXXX++++++",
"++++++XXXXXXoooooooooXXXooooooXXXXXXXXXXXX++++++",
"++++++XXXXXXoooooooooXXXooooooXXXXXXXXXXXX++++++",
"++++++XXXXXXXXXXXXXXXXXXXXXXXXXXXXXXXXXXXX++++++",
"++++++XXXXXXXXXXXXXXXXXXXXXXXXXXXXXXXXXXXX++++++",
"++++++XXXXXXXXXXXXXXXXXXXXXXXXXXXXXXXXXXXX++++++",
"+++XXXXXXXXX........................XXXXXXXXX+++",
"+++XXXXXXXXX........................XXXXXXXXX+++",
"+++XXXXXXXXX........................XXXXXXXXX+++",
"+++XXX.................................   XXX+++",
"+++XXX.................................   XXX+++",
"+++XXX.................................   XXX+++",
"+++XXX.................................   XXX+++",
"+++XXX.................................   XXX+++",
"+++XXX.................................   XXX+++",
"+++.................................         +++",
"+++.................................         +++",
"+++.................................         +++",
"++++++........................            ++++++",
"++++++........................            ++++++",
"++++++........................            ++++++",
"++++++++++++      ...               ++++++++++++",
"++++++++++++      ...               ++++++++++++",
"++++++++++++      ...               ++++++++++++"
};
