/* XPM */
static char *result[] = {
/* columns rows colors chars-per-pixel */
"16 16 6 1 ",
"  c #193C3E",
". c #265C42",
"X c #3E8948",
"o c #63C74D",
"O c white",
"+ c None",
/* pixels */
"++++++++++++++++",
"++++++++++++++++",
"++++++++++++++++",
"++++++++++++++++",
"++++++++++++++++",
"++++oOOooooo++++",
"+++oOoooXXXXX+++",
"+++oooXXXXXXX+++",
"++XXoooXooXXXX++",
"++XXXXXXXXXXXX++",
"+XXX........XXX+",
"+X........... X+",
"+X........... X+",
"+...........   +",
"++........    ++",
"++++  .     ++++"
};
