/* XPM */
static char *result[] = {
/* columns rows colors chars-per-pixel */
"32 32 6 1 ",
"  c #222222",
". c #483B3A",
"X c #775C55",
"o c #4BA747",
"O c #97DA3F",
"+ c #417089",
/* pixels */
"XXXX  XXXXXXXXXXXX  XXXXXX  XXXX",
"XXXX  XXXXXXXXXXXX  XXXXXX  XXXX",
"....  ............  ......  ....",
"....  ............  ......  ....",
"....  ....  ......  ....    ....",
"....  ....  ......  ....    ....",
"                                ",
"                                ",
"XXXXXX      ++++  ++    XXXXXXXX",
"XXXXXX      ++++  ++    XXXXXXXX",
"........  ++oooo++oo++  ........",
"........  ++oooo++oo++  ........",
"......    OOoooooooooo    ......",
"......    OOoooooooooo    ......",
"            OOoooooo++          ",
"            OOoooooo++          ",
"XXXX  XXXXXXXXOOooooXX  XXXX    ",
"XXXX  XXXXXXXXOOooooXX  XXXX    ",
"......  ......OOoo++..  ....  ..",
"......  ......OOoo++..  ....  ..",
"..........  ..OOoo++........  ..",
"..........  ..OOoo++........  ..",
"              ++oo              ",
"              ++oo              ",
"XXXX  XXXXXXXXXXOOXX    XXXXXXXX",
"XXXX  XXXXXXXXXXOOXX    XXXXXXXX",
"....  ..........OO..  ..........",
"....  ..........OO..  ..........",
"....  ..........OO++  ......  ..",
"....  ..........OO++  ......  ..",
"            OOoooooo++++        ",
"            OOoooooo++++        "
};
