/* XPM */
static char *result[] = {
/* columns rows colors chars-per-pixel */
"32 32 8 1 ",
"  c #222222",
". c #38262D",
"X c #483B3A",
"o c #3D734F",
"O c #775C55",
"+ c #4BA747",
"@ c #97DA3F",
"# c #B6CBCF",
/* pixels */
"OOOO  OOOOOOOOOOOO  OOOOOO  OOOO",
"OOOO  OOOOOOOOOOOO  OOOOOO  OOOO",
"XXXX  ##oo##XXXXXX##oo##XX  XXXX",
"XXXX  ##oo##XXXXXX##oo##XX  XXXX",
"XXXX    @@oo      oooo      XXXX",
"XXXX    @@oo      oooo      XXXX",
"        @@++oooooo++oo          ",
"        @@++oooooo++oo          ",
"OO  OOOO@@++++++++++ooOOOOOOOOOO",
"OO  OOOO@@++++++++++ooOOOOOOOOOO",
"XXXXXXXXoo++++++++++ooXXXXXXXXXX",
"XXXXXXXXoo++++++++++ooXXXXXXXXXX",
"XXXXXXXX@@++++++++++XXXXXX  XXXX",
"XXXXXXXX@@++++++++++XXXXXX  XXXX",
"        @@++++++++++oo          ",
"        @@++++++++++oo          ",
"OOOOOOOO@@++++++++++ooOOOOOO  ..",
"OOOOOOOO@@++++++++++ooOOOOOO  ..",
"XXXXXXXXXX++++oo++++ooXXXXXX  XX",
"XXXXXXXXXX++++oo++++ooXXXXXX  XX",
"XXXXXX  @@++oo  oo++ooXXXXXX  XX",
"XXXXXX  @@++oo  oo++ooXXXXXX  XX",
"        @@oo      oooo          ",
"        @@oo      oooo          ",
"OOOO  OO@@  OOOOOO  ooOOOOOOOOOO",
"OOOO  OO@@  OOOOOO  ooOOOOOOOOOO",
"XXXX  XX  XXXXXXXXXX  XXXXXXXXXX",
"XXXX  XX  XXXXXXXXXX  XXXXXXXXXX",
"XXXX  XXXXXXXXXX  XX  XX  XXXXXX",
"XXXX  XXXXXXXXXX  XX  XX  XXXXXX",
"                                ",
"                                "
};
