/* XPM */
static char *d506db02c87248ddaf6ae1182a1e186a9oW8yL7pDdwkvSQU[] = {
/* columns rows colors chars-per-pixel */
"64 64 7 1 ",
"  c None",
". c #222222",
"X c #DC4A7B",
"o c #417089",
"O c #72D6CE",
"+ c #F78697",
"@ c #FDF7ED",
/* pixels */
"                                                                ",
"                                                                ",
"                                                                ",
"                                                                ",
"                                                                ",
"                                                                ",
"                                                                ",
"                                                                ",
"                                                                ",
"                                                                ",
"                                                                ",
"                                                                ",
"                                                                ",
"                                                                ",
"                                                                ",
"                                                                ",
"                                ............                    ",
"                                ............                    ",
"                              ..++++++++XXXX..                  ",
"                              ..++++++++XXXX..                  ",
"                            ..++++++XXXX....XX..                ",
"                            ..++++++XXXX....XX..                ",
"                            ..++++XXXX..    ..                  ",
"                            ..++++XXXX..    ..                  ",
"                      ..........XXXX......                      ",
"                      ..........XXXX......                      ",
"                      ..@@@@OOOOOOOOOOOO..                      ",
"                      ..@@@@OOOOOOOOOOOO..                      ",
"                  ......ooooooooooooOOOO..                      ",
"                  ......ooooooooooooOOOO..                      ",
"                  ..@@@@OOOOOOOOOOooOOOO..                      ",
"                  ..@@@@OOOOOOOOOOooOOOO..                      ",
"                  ..@@ooOOooOOooOOooOOOO..                      ",
"                  ..@@ooOOooOOooOOooOOOO..                      ",
"                  ..@@ooOOooOOooOOooOOOO..                      ",
"                  ..@@ooOOooOOooOOooOOOO..                      ",
"                  ..@@ooOOooOOooOOooOOOO..                      ",
"                  ..@@ooOOooOOooOOooOOOO..                      ",
"                  ..@@@@OOOOOOOOOOooOOOO..                      ",
"                  ..@@@@OOOOOOOOOOooOOOO..                      ",
"                  ......ooooooooooooOOOO..                      ",
"                  ......ooooooooooooOOOO..                      ",
"                      ..@@OOOOOOOOOOOOOO..                      ",
"                      ..@@OOOOOOOOOOOOOO..                      ",
"                      ..OOoooooooooooooo..                      ",
"                      ..OOoooooooooooooo..                      ",
"                      ..@@OOOOOOOOOOOOOO..                      ",
"                      ..@@OOOOOOOOOOOOOO..                      ",
"                      ..@@OOOOOOOOOOOOOO..                      ",
"                      ..@@OOOOOOOOOOOOOO..                      ",
"                      ..oooo........oooo..                      ",
"                      ..oooo........oooo..                      ",
"                      ......        ..oo..                      ",
"                      ......        ..oo..                      ",
"                                      ....                      ",
"                                      ....                      ",
"                                                                ",
"                                                                ",
"                                                                ",
"                                                                ",
"                                                                ",
"                                                                ",
"                                                                ",
"                                                                "
};
