/* XPM */
static char *_df09da6f1a44bfdf169614fe66ef52aNvAjUtjgIncGX95s[] = {
/* columns rows colors chars-per-pixel */
"64 64 7 1 ",
"  c None",
". c #222222",
"X c #DC4A7B",
"o c #417089",
"O c #72D6CE",
"+ c #F78697",
"@ c #FDF7ED",
/* pixels */
"                                                                ",
"                                                                ",
"                                                                ",
"                                                                ",
"                                                                ",
"                                                                ",
"                                                                ",
"                                                                ",
"                                                                ",
"                                                                ",
"                                                                ",
"                                                                ",
"                                                                ",
"                                                                ",
"                                ............                    ",
"                                ............                    ",
"                              ..++++++++XXXX..                  ",
"                              ..++++++++XXXX..                  ",
"                            ..++++++XXXX....XX..                ",
"                            ..++++++XXXX....XX..                ",
"                            ..++++XXXX..    ..                  ",
"                            ..++++XXXX..    ..                  ",
"                        ........XXXX......                      ",
"                        ........XXXX......                      ",
"                  ......@@@@OOOOOOOOOOOO..                      ",
"                  ......@@@@OOOOOOOOOOOO..                      ",
"                  ..@@@@OOOOOOOOOOooOOOO..                      ",
"                  ..@@@@OOOOOOOOOOooOOOO..                      ",
"                  ..@@ooOOooOOooOOooOOOO..                      ",
"                  ..@@ooOOooOOooOOooOOOO..                      ",
"                  ..@@ooOOooOOooOOooOOOO..                      ",
"                  ..@@ooOOooOOooOOooOOOO..                      ",
"                  ..@@ooOOooOOooOOooOOOO..                      ",
"                  ..@@ooOOooOOooOOooOOOO..                      ",
"                  ..@@@@OOOOOOOOOOooOOOO..                      ",
"                  ..@@@@OOOOOOOOOOooOOOO..                      ",
"                  ......ooooooooooooOOOO..                      ",
"                  ......ooooooooooooOOOO..                      ",
"                      ..ooooooooooooOOOO..                      ",
"                      ..ooooooooooooOOOO..                      ",
"                      ..@@OOOOOOOOOOOOOO..                      ",
"                      ..@@OOOOOOOOOOOOOO..                      ",
"                      ..OOoooooooooooooo..                      ",
"                      ..OOoooooooooooooo..                      ",
"                      ..@@OOOOOOOOOOOOOO..                      ",
"                      ..@@OOOOOOOOOOOOOO..                      ",
"                      ..@@OOOOOOOOOOOOOO..                      ",
"                      ..@@OOOOOOOOOOOOOO..                      ",
"                    ..oooo..........oooooo..                    ",
"                    ..oooo..........oooooo..                    ",
"                    ......          ....oo..                    ",
"                    ......          ....oo..                    ",
"                                        ....                    ",
"                                        ....                    ",
"                                                                ",
"                                                                ",
"                                                                ",
"                                                                ",
"                                                                ",
"                                                                ",
"                                                                ",
"                                                                ",
"                                                                ",
"                                                                "
};
