/* XPM */
static char *_b7c80f3211b4992f643a6162f6569fbat4gCJCgPBQDkfgo[] = {
/* columns rows colors chars-per-pixel */
"64 64 7 1 ",
"  c None",
". c #222222",
"X c #DC4A7B",
"o c #417089",
"O c #72D6CE",
"+ c #F78697",
"@ c #FDF7ED",
/* pixels */
"                                                                ",
"                                                                ",
"                                                                ",
"                                                                ",
"                                                                ",
"                                                                ",
"                                                                ",
"                                                                ",
"                                                                ",
"                                                                ",
"                                                                ",
"                                                                ",
"                                                                ",
"                                                                ",
"                                ..............                  ",
"                                ..............                  ",
"                              ..++++++++XXXXXX..                ",
"                              ..++++++++XXXXXX..                ",
"                            ..++++++XXXX......                  ",
"                            ..++++++XXXX......                  ",
"                            ..++++XXXX..                        ",
"                            ..++++XXXX..                        ",
"                              ..XXXX..                          ",
"                              ..XXXX..                          ",
"                        ..................                      ",
"                        ..................                      ",
"                  ......@@@@OOOOOOOOOOOO..                      ",
"                  ......@@@@OOOOOOOOOOOO..                      ",
"                  ..@@@@OOOOOOOOOOooOOOO..                      ",
"                  ..@@@@OOOOOOOOOOooOOOO..                      ",
"                  ..@@ooOOooOOooOOooOOOO..                      ",
"                  ..@@ooOOooOOooOOooOOOO..                      ",
"                  ..@@ooOOooOOooOOooOOOO..                      ",
"                  ..@@ooOOooOOooOOooOOOO..                      ",
"                  ..@@ooOOooOOooOOooOOOO..                      ",
"                  ..@@ooOOooOOooOOooOOOO..                      ",
"                  ..@@@@OOOOOOOOOOooOOOO..                      ",
"                  ..@@@@OOOOOOOOOOooOOOO..                      ",
"                  ......ooooooooooooOOOO..                      ",
"                  ......ooooooooooooOOOO..                      ",
"                      ..ooooooooooooOOOO..                      ",
"                      ..ooooooooooooOOOO..                      ",
"                      ..@@OOOOOOOOOOOOOO..                      ",
"                      ..@@OOOOOOOOOOOOOO..                      ",
"                      ..OOoooooooooooooo..                      ",
"                      ..OOoooooooooooooo..                      ",
"                      ..@@OOOOOOOOOOOOOO..                      ",
"                      ..@@OOOOOOOOOOOOOO..                      ",
"                      ..@@OOOOOOOOOOOOOO....                    ",
"                      ..@@OOOOOOOOOOOOOO....                    ",
"                      ..oooo........oooooooo..                  ",
"                      ..oooo........oooooooo..                  ",
"                      ..oo..        ..........                  ",
"                      ..oo..        ..........                  ",
"                      ....                                      ",
"                      ....                                      ",
"                                                                ",
"                                                                ",
"                                                                ",
"                                                                ",
"                                                                ",
"                                                                ",
"                                                                ",
"                                                                "
};
