/* XPM */
static char *_58ee92121684079eb5e00185339b5ffKzyq0SJyMOybuF9V[] = {
/* columns rows colors chars-per-pixel */
"64 64 7 1 ",
"  c None",
". c #222222",
"X c #DC4A7B",
"o c #417089",
"O c #72D6CE",
"+ c #F78697",
"@ c #FDF7ED",
/* pixels */
"                                                                ",
"                                                                ",
"                                                                ",
"                                                                ",
"                                    ..                          ",
"                                    ..                          ",
"                                  ..XX..                        ",
"                                  ..XX..                        ",
"                                    ..XX..                      ",
"                                    ..XX..                      ",
"                                    ..XX..                      ",
"                                    ..XX..                      ",
"                                    ..++XX..                    ",
"                                    ..++XX..                    ",
"                                  ..++++XX..                    ",
"                                  ..++++XX..                    ",
"                                ..++++XXXX..                    ",
"                                ..++++XXXX..                    ",
"                                ..++++XX....                    ",
"                                ..++++XX....                    ",
"                                  ..XXXX..                      ",
"                                  ..XXXX..                      ",
"                        ....................                    ",
"                        ....................                    ",
"                        ..@@@@OOOOOOOOOOOO..                    ",
"                        ..@@@@OOOOOOOOOOOO..                    ",
"                    ......ooooooooooooOOOO..                    ",
"                    ......ooooooooooooOOOO..                    ",
"                    ..@@@@OOOOOOOOOOooOOOO..                    ",
"                    ..@@@@OOOOOOOOOOooOOOO..                    ",
"                    ..@@ooOOooOOooOOooOOOO..                    ",
"                    ..@@ooOOooOOooOOooOOOO..                    ",
"                    ..@@ooOOooOOooOOooOOOO..                    ",
"                    ..@@ooOOooOOooOOooOOOO..                    ",
"                    ..@@ooOOooOOooOOooOOOO..                    ",
"                    ..@@ooOOooOOooOOooOOOO..                    ",
"                    ..@@@@OOOOOOOOOOooOOOO..                    ",
"                    ..@@@@OOOOOOOOOOooOOOO..                    ",
"                    ......ooooooooooooOOOO..                    ",
"                    ......ooooooooooooOOOO..                    ",
"                        ..@@OOOOOOOOOOOOOO..                    ",
"                        ..@@OOOOOOOOOOOOOO..                    ",
"                  ......OOoooooooooooooo......                  ",
"                  ......OOoooooooooooooo......                  ",
"                  ..oo..@@OOOOOOOOOOOOOO..oo..                  ",
"                  ..oo..@@OOOOOOOOOOOOOO..oo..                  ",
"                  ..oooo@@OOOOOOOOOOOOOOoooo..                  ",
"                  ..oooo@@OOOOOOOOOOOOOOoooo..                  ",
"                  ............................                  ",
"                  ............................                  ",
"                                                                ",
"                                                                ",
"                                                                ",
"                                                                ",
"                                                                ",
"                                                                ",
"                                                                ",
"                                                                ",
"                                                                ",
"                                                                ",
"                                                                ",
"                                                                ",
"                                                                ",
"                                                                "
};
