/* XPM */
static char *_71e892113534cbac8c154588f0408a16EURdgdIAkoMFL48[] = {
/* columns rows colors chars-per-pixel */
"64 64 7 1 ",
"  c None",
". c #222222",
"X c #DC4A7B",
"o c #417089",
"O c #72D6CE",
"+ c #F78697",
"@ c #FDF7ED",
/* pixels */
"                                                                ",
"                                                                ",
"                                                                ",
"                                                                ",
"                                                                ",
"                                                                ",
"                                                                ",
"                                                                ",
"                                                                ",
"                                                                ",
"                                                                ",
"                                                                ",
"                                                                ",
"                                                                ",
"                                            ..                  ",
"                                            ..                  ",
"                                ............XX..                ",
"                                ............XX..                ",
"                              ..++++++++XXXX..                  ",
"                              ..++++++++XXXX..                  ",
"                            ..++++++XXXX....                    ",
"                            ..++++++XXXX....                    ",
"                            ..++++XXXX..                        ",
"                            ..++++XXXX..                        ",
"                              ..XXXX..                          ",
"                              ..XXXX..                          ",
"                      ....................                      ",
"                      ....................                      ",
"                      ..@@@@OOOOOOOOOOOO..                      ",
"                      ..@@@@OOOOOOOOOOOO..                      ",
"                  ......ooooooooooooOOOO..                      ",
"                  ......ooooooooooooOOOO..                      ",
"                  ..@@@@OOOOOOOOOOooOOOO..                      ",
"                  ..@@@@OOOOOOOOOOooOOOO..                      ",
"                  ..@@ooOOooOOooOOooOOOO..                      ",
"                  ..@@ooOOooOOooOOooOOOO..                      ",
"                  ..@@ooOOooOOooOOooOOOO..                      ",
"                  ..@@ooOOooOOooOOooOOOO..                      ",
"                  ..@@ooOOooOOooOOooOOOO..                      ",
"                  ..@@ooOOooOOooOOooOOOO..                      ",
"                  ..@@@@OOOOOOOOOOooOOOO..                      ",
"                  ..@@@@OOOOOOOOOOooOOOO..                      ",
"                  ......ooooooooooooOOOO..                      ",
"                  ......ooooooooooooOOOO..                      ",
"                      ..@@OOOOOOOOOOOOOO..                      ",
"                      ..@@OOOOOOOOOOOOOO..                      ",
"                      ..OOoooooooooooooo..                      ",
"                      ..OOoooooooooooooo..                      ",
"                      ..@@OOOOOOOOOOOOOO..                      ",
"                      ..@@OOOOOOOOOOOOOO..                      ",
"                      ..@@OOOOOOOOOOOOOO..                      ",
"                      ..@@OOOOOOOOOOOOOO..                      ",
"                      ........oooooo......                      ",
"                      ........oooooo......                      ",
"                            ..oo....                            ",
"                            ..oo....                            ",
"                            ....                                ",
"                            ....                                ",
"                                                                ",
"                                                                ",
"                                                                ",
"                                                                ",
"                                                                ",
"                                                                "
};
