/* XPM */
static char *chest_closed1694538281[] = {
/* columns rows colors chars-per-pixel */
"16 16 7 1 ",
"  c None",
". c #222222",
"X c #62232F",
"o c #8F4029",
"O c #C56025",
"+ c #EE8E2E",
"@ c #FACB3E",
/* pixels */
"                ",
"                ",
"  ..        ..  ",
"..@X........X@..",
".++o++++++++o++.",
".O@XOOOOOOOOX@O.",
".O+oOOOOOOOOo+O.",
".O@XOOOOOOOOX@O.",
".O+oOOoXXoOOo+O.",
".@@X@@X@@X@@X@@.",
"..+o..X+@X..o+..",
".X..XX....XX..X.",
".oXXooXXXXooXXo.",
".XooooooooooooX.",
".XXXXXXXXXXXXXX.",
"................"
};
