/* XPM */
static char *f30c80a4e7b44c9ecc43f8b795840808jFvHCXXE8cLNuPYQ[] = {
/* columns rows colors chars-per-pixel */
"32 32 5 1 ",
"  c #5A4E44",
". c #796755",
"X c #A08662",
"o c #9CDB43",
"O c #C0F675",
/* pixels */
"XXXX.O.XXX.Oo. .O  oO.XXX.O.XXXX",
".oOo oO o  oO..oooooo  o Oo oOo.",
"  ooooooooooooooooooooooooooOo  ",
"  oooooooooooooooooooooooooooo  ",
".  oooooooooooooooooooooooooo  .",
". oooooooooooooooooooooooooooo .",
".OooooooooooooooooooooooooooooO.",
"oooooooooooooooooooooooooooooooo",
"  oooooooooooooooooooooooooooo  ",
"   oooooooooooooooooooooooooo   ",
".  oooooooooooooooooooooooooo  .",
"X.oooooooooooooooooooooooooooo.X",
"X.ooooooooooooooooooooooooooooo.",
".ooooooooooooooooooooooooooooo  ",
"oOooooooooooooooooooooooooooooo ",
".   ooooooooooooooooooooooooooOo",
"..ooooooooooooooooooooooooooooo ",
"Oooooooooooooooooooooooooooooo  ",
". oooooooooooooooooooooooooooo X",
".oooooooooooooooooooooooooooooXX",
"OoooooooooooooooooooooooooooooO.",
"  oooooooooooooooooooooooooooooO",
". oooooooooooooooooooooooooooo  ",
".ooooooooooooooooooooooooooooO .",
"oOooooooooooooooooooooooooooooo.",
"o  oooooooooooooooooooooooooooOo",
"  oOooooooooooooooooooooooooo  o",
"X.Oooo ooooooooooooooooooooooo  ",
"X.oo   ooOooOo Ooo  oooo  oooO.X",
"Xoo  .Xooo oo  oo   ooOo    oo.X",
"Xo .XXoo.. o .  o..X  oo X.   .X",
"X. XXXX.XX..XXX..XXX  XXXXXXXXXX"
};
