/* XPM */
static char *result[] = {
/* columns rows colors chars-per-pixel */
"32 32 12 1 ",
"  c #1E1208",
". c #1B1917",
"X c #3D2715",
"o c #252220",
"O c #56381E",
"+ c #6C4C31",
"@ c #A3673F",
"# c #BB7547",
"$ c #BF8F57",
"% c #DBA463",
"& c #F4D29C",
"* c None",
/* pixels */
"************        ************",
"*********** %%%%%%%% ***********",
"********** %%$$$$$$%% **********",
"********** %$%%%%%%$% **********",
"********** %$%%%%%%$% **********",
"********** %%$$$$$$%% **********",
"********** XX%%%%%%XX **********",
"********** OOXXXXXXOO **********",
"*****                      *****",
"**** &&&&&&&&&&&&&&&&&&&&&& ****",
"*** &%%%%%%%%%%%%%%%%%%%%%%& ***",
"** &%%@@@@@@@@@@@@@@@@@@@@%%& **",
"** %%@####################@%%& *",
"** %#@@@@@@####@@@@@@@@###@@%%& ",
"** %###################@@@@@%%% ",
"** %#@@@@######@@@@@#######@%% *",
"** %%####@@@@@@#######@@@@@%% **",
"*** %%@@##################%% ***",
"**** %%%%%%%%%%%%%%%%%%%%%% ****",
"*****                      *****",
"********** XXXXXXXXXX **********",
"********** XOXOXOOXOX **********",
"********** O+OOOOOO+O **********",
"********** O+O+++O++O **********",
"********** O++O++O+OO **********",
"********** O++O++O+OO **********",
"********** OO+O++O+OO **********",
"*********** ooO .  oX***********",
"********************************",
"********************************",
"********************************",
"********************************"
};
