/* XPM */
static char *result[] = {
/* columns rows colors chars-per-pixel */
"32 32 13 1 ",
"  c #1E1208",
". c #1B1917",
"X c #261F1C",
"o c #3D2715",
"O c #252220",
"+ c #56381E",
"@ c #6C4C31",
"# c #A3673F",
"$ c #BB7547",
"% c #BF8F57",
"& c #DBA463",
"* c #F4D29C",
"= c None",
/* pixels */
"============        ============",
"=========== &&&&&&&& ===========",
"========== &&%%%%%%&& ==========",
"========== &%&&&&&&%& ==========",
"========== &%&&&&&&%& ==========",
"========== &&%%%%%%&& ==========",
"========== oo&&&&&&oo ==========",
"========== ++oooooo++ ==========",
"=====                      =====",
"==== ********************** ====",
"=== *&&&&&&&&&&&&&&&&&&&&&&* ===",
"=== &&####################&& ===",
"===X&#$$$$$$$$$$$$$$$$$$$$#& ===",
"=== $######$$$$########$$$#& ===",
"=== &$$$$$$$$$$$$$$$$$$####$X===",
"===X$####$$$$$$#####$$$$$$$& ===",
"=== &$$$$######$$$$$$$#####& ===",
"=== &&##$$$$$$$$$$$$$$$$$$&$X===",
"==== &&&&&&&&&&&&&&&&&&&&&& ====",
"=====XXXXXXXXXXXXXXXXXXXXXX=====",
"========== oooooooooo ==========",
"========== o+o+o++o+o ==========",
"========== +@++++++@+ ==========",
"========== +@+@@@+@@+ ==========",
"========== +@@+@@+@++ ==========",
"========== +@@+@@+@++ ==========",
"========== ++@+@@+@++ ==========",
"=========== OO+ .  Oo===========",
"================================",
"================================",
"================================",
"================================"
};
