/* XPM */
static char *c7b98871ee554d1ace3d1002d72bc125Wjq2bYjBANI3AymC[] = {
/* columns rows colors chars-per-pixel */
"32 32 2 1 ",
"  c None",
". c gray20",
/* pixels */
"..............  ................",
"..............  ................",
"                                ",
"                                ",
"........  ..........  ..........",
"........  ..........  ..........",
"........  ..........  ..........",
"........  ..........  ..........",
"                                ",
"                                ",
"..  ........  ............  ....",
"..  ........  ............  ....",
"                                ",
"                                ",
"                                ",
"                                ",
"                                ",
"                                ",
"                                ",
"                                ",
"                                ",
"                                ",
"                                ",
"                                ",
"                                ",
"                                ",
"                                ",
"                                ",
"                                ",
"                                ",
"                                ",
"                                "
};
