/* XPM */
static char *result[] = {
/* columns rows colors chars-per-pixel */
"32 32 3 1 ",
"  c #222222",
". c #483B3A",
"X c #775C55",
/* pixels */
"      ..        ......  ..      ",
"      ..        ......  ..      ",
"  ............................XX",
"  ............................XX",
"..............................XX",
"..............................XX",
"..............................XX",
"..............................XX",
"  ......XX....................XX",
"  ......XX....................XX",
"....XXXX    XX................XX",
"....XXXX    XX................XX",
"  ..    ....    XX..............",
"  ..    ....    XX..............",
"    ............  ............XX",
"    ............  ............XX",
"  ................  XXXX........",
"  ................  XXXX........",
"................  XX    XXXXXXXX",
"................  XX    XXXXXXXX",
"..............XX  ......      XX",
"..............XX  ......      XX",
"  ..........XX  ................",
"  ..........XX  ................",
"  ..........  ..................",
"  ..........  ..................",
"  ........XX  ................XX",
"  ........XX  ................XX",
"  ........    ................XX",
"  ........    ................XX",
"XXXXXX..XXXX..XXXXXXXX..XXXXXXXX",
"XXXXXX..XXXX..XXXXXXXX..XXXXXXXX"
};
