/* XPM */
static char *result[] = {
/* columns rows colors chars-per-pixel */
"32 32 5 1 ",
"  c #0F111D",
". c #004000",
"X c #008000",
"o c #02B819",
"O c None",
/* pixels */
"OOOOOOOOOOOOOOOOOOOOOOOOOOOOOOOO",
"OOOOOOOOOOOOOOOOOOOOOOOOOOOOOOOO",
"OOOOOOOOOOOOOOOOOOOOOOOOOOOOOOOO",
"OOOOOOOOOOOOOOOOOOOOOOOOOOOOOOOO",
"OOOOOOOOOOOOOOOOOOOOOOOOOOOOOOOO",
"OOOOOOOOOOOOOOOOOOOOOOOOOOOOOOOO",
"OOOOOOOOOOOOOOOOOOOOOOOOOOOOOOOO",
"OOOOOOOOOOOOOOOOOOOOOOOOOOOOOOOO",
"OOOOOOOOOOOOOOOOOOOOOOOOOOOOOOOO",
"OOOOOOOOOOOOOOOOOOOOOOOOOOOOOOOO",
"OOOOOOOOOOOOOOOOOOOOOOOOOOOOOOOO",
"OOOOOOOOOOOOOOOOOOOOOOOOOOOOOOOO",
"OOOOOOOOOOOOOOOOOOOOOOOOOOOOOOOO",
"OOOOOOOOOOOOOOOOOOOOOOOOOOOOOOOO",
"OOOOOOOOOOOOOOOOOOOOOOOOOOOOOOOO",
"OOOOOOOOOOOOOOOOOOOOOOOOOOOOOOOO",
"OOOOOOOOOOOOOOOOOOOOOOOOOOOOOOOO",
"OOOOOOOOOOOOOOOOOOOOOOOOOOOOOOOO",
"OOOOOOOOOOOOOOOOOOOOOOOOOOOOOOOO",
"OOOOOOOOOOOOOOOOOOOOOOOOOOOOOOOO",
"OOOOOO......OOOOOOOOOOOOOOOOOOOO",
"OOOOOO......OOOOOOOOOOOOOOOOOOOO",
"OOOO..XXooXX..OOOOOOOOOOOO......",
"OOOO..XXooXX..OOOOOOOOOOOO......",
"OOOO....ooooXX..OOOOOOOO..ooXX..",
"OOOO....ooooXX..OOOOOOOO..ooXX..",
"OO..XXoo..oooo..  OOOOOO..XX    ",
"OO..XXoo..oooo..  OOOOOO..XX    ",
"  ..ooXX..      OOOOOOOO      OO",
"  ..ooXX..      OOOOOOOO      OO",
"OO          OOOOOOOOOOOOOOOOOOOO",
"OO          OOOOOOOOOOOOOOOOOOOO"
};
