/* XPM */
static char *floor_slime1694538279[] = {
/* columns rows colors chars-per-pixel */
"16 16 8 1 ",
"  c None",
". c #0B0D19",
"X c #0D0F1B",
"o c #0F111D",
"O c #004000",
"+ c #008000",
"@ c #19C727",
"# c #1DE32E",
/* pixels */
"                ",
"                ",
"   OOOOOOO      ",
"  O+@@@@@+O     ",
" O+@@@###@@O    ",
".O@@@#####@+O   ",
".O@@@######@O   ",
".O@@#######@+O  ",
".O@@########@O  ",
".O+@@#######@+O ",
".XO++@######@+O ",
".XoO++@@@@@@++O ",
" oooOO+++++++Oo ",
"  ooooOOOOOOOoo ",
"   ooooooooooo  ",
"     oooooooo   "
};
