/* XPM */
static char *floor_leftover1694538278[] = {
/* columns rows colors chars-per-pixel */
"16 16 5 1 ",
"  c None",
". c #0F111D",
"X c #004000",
"o c #008000",
"O c #02B819",
/* pixels */
"                ",
"                ",
"                ",
"                ",
"                ",
"                ",
"                ",
"                ",
"                ",
"                ",
"   XXX          ",
"  XoOoX      XXX",
"  XXOOoX    XOoX",
" XoOXOOX.   Xo..",
".XOoX...    ... ",
" .....          "
};
