/* XPM */
static char *result[] = {
/* columns rows colors chars-per-pixel */
"32 32 10 1 ",
"  c #0A0B17",
". c #0D0E1A",
"X c #0E0F1B",
"o c #0F121E",
"O c #12131F",
"+ c #004000",
"@ c #008000",
"# c #19C727",
"$ c #1DE32E",
"% c None",
/* pixels */
"%%%%%%%%%%%%%%%%%%%%%%%%%%%%%%%%",
"%%%%%%%%%%%%%%%%%%%%%%%%%%%%%%%%",
"%%%%%%%%%%%%%%%%%%%%%%%%%%%%%%%%",
"%%%%%%%%%%%%%%%%%%%%%%%%%%%%%%%%",
"%%%%%%%%%%++++++++%%%%%%%%%%%%%%",
"%%%%%%%%%%++++++++%%%%%%%%%%%%%%",
"%%%%%%%%++++@@@@##$$++%%%%%%%%%%",
"%%%%%%%%++++@@@@##$$++%%%%%%%%%%",
"%%%%++++++######$$$$$$##++%%%%%%",
"%%%%++++++######$$$$$$##++%%%%%%",
"%%++++++######$$$$$$$$$$$$++++%%",
"%%++++++######$$$$$$$$$$$$++++%%",
"%%++++@@####$$$$$$$$$$$$$$@@++++",
"%%++++@@####$$$$$$$$$$$$$$@@++++",
"  ++++@@@@####$$$$$$$$$$##@@@@++",
"  ++++@@@@####$$$$$$$$$$##@@@@++",
"  ++++@@@@####$$$$$$$$$$####@@++",
"  ++++@@@@####$$$$$$$$$$####@@++",
"XX++++++@@@@######$$######@@@@++",
"XX++++++@@@@######$$######@@@@++",
"XX++++++++@@@@########@@@@++++OO",
"XX++++++++@@@@########@@@@++++OO",
"..XX++++++@@@@@@####@@@@++++OO%%",
"..XX++++++@@@@@@####@@@@++++OO%%",
"..XX++++++++++@@@@@@++++OOOO%%%%",
"..XX++++++++++@@@@@@++++OOOO%%%%",
"  ..XXoo++++++++++++++OOOO%%%%%%",
"  ..XXoo++++++++++++++OOOO%%%%%%",
"%%..XXXXooOOOOOOOOOOOOOO%%%%%%%%",
"%%..XXXXooOOOOOOOOOOOOOO%%%%%%%%",
"%%%%%%..OOOOOOOOOOOOOO%%%%%%%%%%",
"%%%%%%..OOOOOOOOOOOOOO%%%%%%%%%%"
};
