/* XPM */
static char *floor_spikes_anim_f01694538279[] = {
/* columns rows colors chars-per-pixel */
"16 16 3 1 ",
"  c #222222",
". c #483B3A",
"X c #775C55",
/* pixels */
"   .    ... .   ",
" ..............X",
"...............X",
"...   ....   ..X",
" .     ..     .X",
"..X   X..X   X.X",
" ..XXX....XXX...",
" ..............X",
" ...............",
"...   ....   ..X",
"..     ..     .X",
" .X   X..X   X..",
" ..XXX....XXX...",
" ..............X",
" ..............X",
"XXX..X.XXXX.XXXX"
};
