/* XPM */
static char *_e418d4566704a09b1d122572268b1475Y5gElNiSY95oUAC[] = {
/* columns rows colors chars-per-pixel */
"64 64 7 1 ",
"  c None",
". c #222222",
"X c #DC4A7B",
"o c #417089",
"O c #72D6CE",
"+ c #F78697",
"@ c #FDF7ED",
/* pixels */
"                                                                ",
"                                                                ",
"                                                                ",
"                                                                ",
"                                                                ",
"                                                                ",
"                                                                ",
"                                                                ",
"                                                                ",
"                                                                ",
"                                                                ",
"                                                                ",
"                                                                ",
"                                                                ",
"                                                                ",
"                                                                ",
"                                                                ",
"                                                                ",
"                                                                ",
"                                                                ",
"                                ..........                      ",
"                                ..........                      ",
"                              ..++++++++XX..                    ",
"                              ..++++++++XX..                    ",
"                            ..++++++XXXX..XX..                  ",
"                            ..++++++XXXX..XX..                  ",
"                            ..++++XXXX..  ..XX..                ",
"                            ..++++XXXX..  ..XX..                ",
"                      ..........XXXX......  ..                  ",
"                      ..........XXXX......  ..                  ",
"                      ..@@@@OOOOOOOOOOOO..                      ",
"                      ..@@@@OOOOOOOOOOOO..                      ",
"                  ......ooooooooooooOOOO..                      ",
"                  ......ooooooooooooOOOO..                      ",
"                  ..@@@@OOOOOOOOOOooOOOO..                      ",
"                  ..@@@@OOOOOOOOOOooOOOO..                      ",
"                  ..@@ooOOooOOooOOooOOOO..                      ",
"                  ..@@ooOOooOOooOOooOOOO..                      ",
"                  ..@@ooOOooOOooOOooOOOO..                      ",
"                  ..@@ooOOooOOooOOooOOOO..                      ",
"                  ..@@ooOOooOOooOOooOOOO..                      ",
"                  ..@@ooOOooOOooOOooOOOO..                      ",
"                  ..@@@@OOOOOOOOOOooOOOO..                      ",
"                  ..@@@@OOOOOOOOOOooOOOO..                      ",
"                  ......ooooooooooooOOOO..                      ",
"                  ......ooooooooooooOOOO..                      ",
"                      ..@@OOOOOOOOOOOOOO..                      ",
"                      ..@@OOOOOOOOOOOOOO..                      ",
"                      ..OOoooooooooooooo..                      ",
"                      ..OOoooooooooooooo..                      ",
"                      ..@@OOOOOOOOOOOOOO..                      ",
"                      ..@@OOOOOOOOOOOOOO..                      ",
"                      ..@@OOOOOOOOOOOOOO..                      ",
"                      ..@@OOOOOOOOOOOOOO..                      ",
"                      ..oooo........oooo..                      ",
"                      ..oooo........oooo..                      ",
"                      ......        ......                      ",
"                      ......        ......                      ",
"                                                                ",
"                                                                ",
"                                                                ",
"                                                                ",
"                                                                ",
"                                                                "
};
