/* XPM */
static char *result[] = {
/* columns rows colors chars-per-pixel */
"32 32 20 1 ",
"  c black",
". c #101010",
"X c #151515",
"o c #161616",
"O c gray11",
"+ c gray16",
"@ c #2C2C2C",
"# c #373737",
"$ c #4C3325",
"% c #664432",
"& c #2E3A47",
"* c #3E4E5F",
"= c gray27",
"- c #FDE415",
"; c #E59A72",
": c #5C758F",
"> c #7B9CBE",
", c #FFBD99",
"< c #FFDECC",
"1 c None",
/* pixels */
"1111111111OOOOOOOOOO111111111111",
"1111111111OOOOOOOOOO111111111111",
"11111111OO##====####OOOOOOOOOO11",
"11111111OO##====####OOOOOOOOOO11",
"111111XX##========##========OO11",
"111111XX##========##========OO11",
"1111XX++####====##########OO1111",
"1111XX++####====##########OO1111",
"1111XX++++,,,,,,,,++++++XX111111",
"1111XX++++,,,,,,,,++++++XX111111",
"1111XX++,,  ,,,,  ,,++XX11111111",
"1111XX++,,  ,,,,  ,,++XX11111111",
"111111$$;;  ,,,,  ;;$$1111111111",
"111111$$;;  ,,,,  ;;$$1111111111",
"11111111$$;;;;;;;;$$111111111111",
"11111111$$;;;;;;;;$$111111111111",
"111111&&::$$$$$$$$::&&1111111111",
"111111&&::$$$$$$$$::&&1111111111",
"1111&&::>>::::::::>>::&&11111111",
"1111&&::>>::::::::>>::&&11111111",
"11%%,,>>>>>>>>>>>>>>>>,,%%111111",
"11%%,,>>>>>>>>>>>>>>>>,,%%111111",
"11%%<<,,**>>>>>>>>**,,<<%%111111",
"11%%<<,,**>>>>>>>>**,,<<%%111111",
"1111%%%%####----####%%%%11111111",
"1111%%%%####----####%%%%11111111",
"111111oo####@@@@####oo1111111111",
"111111oo####@@@@####oo1111111111",
"111111..@@@@oooo@@@@..1111111111",
"111111..@@@@oooo@@@@..1111111111",
"11111111....1111....111111111111",
"11111111....1111....111111111111"
};
