/* XPM */
static char *result[] = {
/* columns rows colors chars-per-pixel */
"32 32 16 1 ",
"  c #101010",
". c #151515",
"X c #161616",
"o c gray11",
"O c gray16",
"+ c #2C2C2C",
"@ c #373737",
"# c #664432",
"$ c #2E3A47",
"% c #3E4E5F",
"& c gray27",
"* c #5C758F",
"= c #7B9CBE",
"- c #FFBD99",
"; c #FFDECC",
": c None",
/* pixels */
"::::::::::::oooooooooo::::::::::",
"::::::::::::oooooooooo::::::::::",
"::oooooooooo@@@@&&&&@@oo::::::::",
"::oooooooooo@@@@&&&&@@oo::::::::",
"::oo&&&&&&&&@@&&&&&&&&@@..::::::",
"::oo&&&&&&&&@@&&&&&&&&@@..::::::",
"::::oo@@@@@@@@@@&&&&@@@@OO..::::",
"::::oo@@@@@@@@@@&&&&@@@@OO..::::",
"::::::..OOOOOO@@@@@@@@OOOO..::::",
"::::::..OOOOOO@@@@@@@@OOOO..::::",
"::::::::..OOOOOOOOOOOOOOOO..::::",
"::::::::..OOOOOOOOOOOOOOOO..::::",
"::::::::::..OOOOOOOOOOOO..::::::",
"::::::::::..OOOOOOOOOOOO..::::::",
"::::::::::::..OOOOOOOO..::::::::",
"::::::::::::..OOOOOOOO..::::::::",
"::::::::::$$**........**$$::::::",
"::::::::::$$**........**$$::::::",
"::::::::$$**==********==**$$::::",
"::::::::$$**==********==**$$::::",
"::::::##--================--##::",
"::::::##--================--##::",
"::::::##;;--%%========%%--;;##::",
"::::::##;;--%%========%%--;;##::",
"::::::::####@@@@@@@@@@@@####::::",
"::::::::####@@@@@@@@@@@@####::::",
"::::::::::XX@@@@++++@@@@XX::::::",
"::::::::::XX@@@@++++@@@@XX::::::",
"::::::::::  ++++XXXX++++  ::::::",
"::::::::::  ++++XXXX++++  ::::::",
"::::::::::::    ::::    ::::::::",
"::::::::::::    ::::    ::::::::"
};
