/* XPM */
static char *_c0f0e769a854795a56ef43feba1477fqYZGvAsTbxuRYGGv[] = {
/* columns rows colors chars-per-pixel */
"64 64 3 1 ",
"  c #483B3A",
". c #775C55",
"X c #D2AB93",
/* pixels */
"     .......                                        .......     ",
" ..  .......                                        .......  .. ",
" ..  .....                                            .....  .. ",
"   .......                                            .......   ",
"   .......                                            .......   ",
".......                                                  .......",
".......                                                  .......",
".....                                                      .....",
".....                                                      .....",
".....                                                      .....",
"..                                                            ..",
"..                                                            ..",
"                                                                ",
"                                                                ",
"                                                                ",
"                                                                ",
"                                                                ",
"                                                                ",
"                                                                ",
"                                                                ",
"                                                                ",
"                                                                ",
"                                                                ",
"                                                                ",
"                                                                ",
"                                                                ",
"                               ..                               ",
"                               ..                               ",
"                            ........                            ",
"                            ........                            ",
"                            ........                            ",
"                          .....XX.....                          ",
"                          .....XX.....                          ",
"                            ........                            ",
"                            ........                            ",
"                            ........                            ",
"                               ..                               ",
"                               ..                               ",
"                                                                ",
"                                                                ",
"                                                                ",
"                                                                ",
"                                                                ",
"                                                                ",
"                                                                ",
"                                                                ",
"                                                                ",
"                                                                ",
"                                                                ",
"                                                                ",
"                                                                ",
"                                                                ",
"..                                                            ..",
"..                                                            ..",
".....                                                      .....",
".....                                                      .....",
".....                                                      .....",
".......                                                  .......",
".......                                                  .......",
"   .......                                            .......   ",
"   .......                                            .......   ",
" ..  .....                                            .....  .. ",
" ..  .......                                        .......  .. ",
"     .......                                        .......     "
};
