/* XPM */
static char *a37b8b72cbf74321da5d540c49b778e5Nb4fGb9xMfbuSx6V[] = {
/* columns rows colors chars-per-pixel */
"64 64 5 1 ",
"  c #483B3A",
". c #775C55",
"X c #6D4F44",
"o c #8B6557",
"O c #403332",
/* pixels */
"     .........                                    .........     ",
"     .........                                    .........     ",
"     .....XX                                        XX.....     ",
"   .....ooXX                                        XXoo.....   ",
"   .....oo                                            oo.....   ",
".....ooXX                                              XXoo.....",
".....ooXX                                              XXoo.....",
".....XX                                                  XX.....",
"...ooXX                                                  XXoo...",
"...oo                                                      oo...",
"..XX                                                        XX..",
"..XX                                                        XX..",
"..                                                            ..",
"..                                                            ..",
"                                                                ",
"                                                                ",
"                                    OOOO                        ",
"                                    OOOO                        ",
"                                                                ",
"                                                                ",
"                                                                ",
"                                                                ",
"              OOOOOO                                            ",
"              OOOOOO                                            ",
"                                        OOO                     ",
"                                        OOO                     ",
"                                                                ",
"                                                                ",
"                                                                ",
"                                                                ",
"                                                                ",
"                             OOOOOOO                            ",
"                             OOOOOOO                            ",
"                                                                ",
"                                                                ",
"                                                                ",
"                                                                ",
"                                                                ",
"                                                                ",
"                                                                ",
"                                                                ",
"                                                                ",
"                                OOOOO                           ",
"                                OOOOO                           ",
"                                                                ",
"                                                                ",
"                                                                ",
"                                                                ",
"                   OOOOO                                        ",
"                   OOOOO                                        ",
"..                                                            ..",
"..                                                            ..",
"..XX                                                        XX..",
"..XX                                                        XX..",
"...oo                                                      oo...",
"...ooXX                                                  XXoo...",
".....XX                                                  XX.....",
".....ooXX                                              XXoo.....",
".....ooXX                                              XXoo.....",
"   .....oo                                            oo.....   ",
"   .....ooXX                                        XXoo.....   ",
"     .....XX                                        XX.....     ",
"     .........                                    .........     ",
"     .........                                    .........     "
};
