/* XPM */
static char *result[] = {
/* columns rows colors chars-per-pixel */
"32 32 6 1 ",
"  c #193C3E",
". c #265C42",
"X c #3E8948",
"o c #63C74D",
"O c white",
"+ c None",
/* pixels */
"++++++++++++++++++++++++++++++++",
"++++++++++++++++++++++++++++++++",
"++++++++++++++++++++++++++++++++",
"++++++++++++++++++++++++++++++++",
"++++++++++++++++++++++++++++++++",
"++++++++++++++++++++++++++++++++",
"++++++++++++++++++++++++++++++++",
"++++++++++++++++++++++++++++++++",
"++++++++++++++++++++++++++++++++",
"++++++++++++++++++++++++++++++++",
"++++++++ooOOOOoooooooooo++++++++",
"++++++++ooOOOOoooooooooo++++++++",
"++++++ooOOooooooXXXXXXXXXX++++++",
"++++++ooOOooooooXXXXXXXXXX++++++",
"++++++ooooooXXXXXXXXXXXXXX++++++",
"++++++ooooooXXXXXXXXXXXXXX++++++",
"++++XXXXooooooXXooooXXXXXXXX++++",
"++++XXXXooooooXXooooXXXXXXXX++++",
"++++XXXXXXXXXXXXXXXXXXXXXXXX++++",
"++++XXXXXXXXXXXXXXXXXXXXXXXX++++",
"++XXXXXX................XXXXXX++",
"++XXXXXX................XXXXXX++",
"++XX......................  XX++",
"++XX......................  XX++",
"++XX......................  XX++",
"++XX......................  XX++",
"++......................      ++",
"++......................      ++",
"++++................        ++++",
"++++................        ++++",
"++++++++    ..          ++++++++",
"++++++++    ..          ++++++++"
};
