/* XPM */
static char *result[] = {
/* columns rows colors chars-per-pixel */
"64 64 9 1 ",
"  c #181425",
". c #193C3E",
"X c #262B44",
"o c #265C42",
"O c #3E8948",
"+ c #63C74D",
"@ c #C0CBDC",
"# c white",
"$ c None",
/* pixels */
"$$$$$$$$$$$$$$$$$$$$$$$$$$$$$$$$$$$$$$$$$$$$$$$$$$$$$$$$$$$$$$$$",
"$$$$$$$$$$$$$$$$$$$$$$$$$$$$$$$$$$$$$$$$$$$$$$$$$$$$$$$$$$$$$$$$",
"$$$$$$$$$$$$$$$$$$$$$$$$$$$$$$$$$$$$$$$$$$$$$$$$$$$$$$$$$$$$$$$$",
"$$$$$$$$$$$$$$$$$$$$$$$$$$$$$$$$$$$$$$$$$$$$$$$$$$$$$$$$$$$$$$$$",
"$$$$$$$$$$$$$$$$$$$$$$$$$$$$$$$$$$$$$$$$$$$$$$$$$$$$$$$$$$$$$$$$",
"$$$$$$$$$$$$$$$$$$$$$$$$$$$$$$$$$$$$$$$$$$$$$$$$$$$$$$$$$$$$$$$$",
"$$$$$$$$$$$$$$$$$$$$$$$$$$$$$$$$$$$$$$$$$$$$$$$$$$$$$$$$$$$$$$$$",
"$$$$$$$$$$$$$$$$$$$$$$$$$$$$$$$$$$$$$$$$$$$$$$$$$$$$$$$$$$$$$$$$",
"$$$$$$$$$$$$$$$$$$$$$$$$$$$$$$$$$$$$$$$$$$$$$$$$$$$$$$$$$$$$$$$$",
"$$$$$$$$$$$$$$$$$$$$$$$$$$$$$$$$$$$$$$$$$$$$$$$$$$$$$$$$$$$$$$$$",
"$$$$$$$$$$$$$$$$$$$$$$$$$$$$$$$$$$$$$$$$$$$$$$$$$$$$$$$$$$$$$$$$",
"$$$$$$$$$$$$$$$$$$$$$$$$$$$$$$$$$$$$$$$$$$$$$$$$$$$$$$$$$$$$$$$$",
"$$$$$$$$$$$$$$$$$$$$$$$$$$$$$$$$$$$$$$$$$$$$$$$$$$$$$$$$$$$$$$$$",
"$$$$$$$$$$$$$$$$$$$$$$$$$$$$$$$$$$$$$$$$$$$$$$$$$$$$$$$$$$$$$$$$",
"$$$$$$$$$$$$$$$$$$$$$$$$$$$$$$$$$$$$$$$$$$$$$$$$$$$$$$$$$$$$$$$$",
"$$$$$$$$$$$$$$$$$$$$$$$$$$$$$$$$$$$$$$$$$$$$$$$$$$$$$$$$$$$$$$$$",
"$$$$$$$$$$$$$$$$$$$$$$$$$$$$$$$$$$$$$$$$$$$$$$$$$$$$$$$$$$$$$$$$",
"$$$$$$$$$$$$$$$$$$$$$$$$$$$$$$$$$$$$$$$$$$$$$$$$$$$$$$$$$$$$$$$$",
"$$$$$$$$$$$$$$$$$$$$$$$$$$$$$$$$$$$$$$$$$$$$$$$$$$$$$$$$$$$$$$$$",
"$$$$$$$$$$$$$$$$$$$$$$$$$$$$$$$$$$$$$$$$$$$$$$$$$$$$$$$$$$$$$$$$",
"$$$$$$$$$$$$$$$$++++########++++++++++++++++++++$$$$$$$$$$$$$$$$",
"$$$$$$$$$$$$$$$$++++########++++++++++++++++++++$$$$$$$$$$$$$$$$",
"$$$$$$$$$$$$$$$$++++########++++++++++++++++++++$$$$$$$$$$$$$$$$",
"$$$$$$$$$$$$$$$$++++########++++++++++++++++++++$$$$$$$$$$$$$$$$",
"$$$$$$$$$$$$++++####++++++++++++OOOOOOOOOOOOOOOOOOOO$$$$$$$$$$$$",
"$$$$$$$$$$$$++++####++++++++++++OOOOOOOOOOOOOOOOOOOO$$$$$$$$$$$$",
"$$$$$$$$$$$$++++####++++++++++++OOOOOOOOOOOOOOOOOOOO$$$$$$$$$$$$",
"$$$$$$$$$$$$++++####++++++++++++OOOOOOOOOOOOOOOOOOOO$$$$$$$$$$$$",
"$$$$$$$$$$$$++++++++++++OOOOOOOOOOOOOOOOOOOOOOOOOOOO$$$$$$$$$$$$",
"$$$$$$$$$$$$++++++++++++OOOOOOOOOOOOOOOOOOOOOOOOOOOO$$$$$$$$$$$$",
"$$$$$$$$$$$$++++++++++++OOOOOOOOOOOOOOOOOOOOOOOOOOOO$$$$$$$$$$$$",
"$$$$$$$$$$$$++++++++++++OOOOOOOOOOOOOOOOOOOOOOOOOOOO$$$$$$$$$$$$",
"$$$$$$$$OOOOOOOO++++++++++++OOOO++++++++OOOOOOOOOOOOOOOO$$$$$$$$",
"$$$$$$$$OOOOOOOO++++++++++++OOOO++++++++OOOOOOOOOOOOOOOO$$$$$$$$",
"$$$$$$$$OOOOOOOO++++++++++++OOOO++++++++OOOOOOOOOOOOOOOO$$$$$$$$",
"$$$$$$$$OOOOOOOO++++++++++++OOOO++++++++OOOOOOOOOOOOOOOO$$$$$$$$",
"$$$$$$$$OOOOOOOOOOOO@@@@XXXXOOOOOOOO@@@@XXXXOOOOOOOOOOOO$$$$$$$$",
"$$$$$$$$OOOOOOOOOOOO@@@@XXXXOOOOOOOO@@@@XXXXOOOOOOOOOOOO$$$$$$$$",
"$$$$$$$$OOOOOOOOOOOO@@@@XXXXOOOOOOOO@@@@XXXXOOOOOOOOOOOO$$$$$$$$",
"$$$$$$$$OOOOOOOOOOOO@@@@XXXXOOOOOOOO@@@@XXXXOOOOOOOOOOOO$$$$$$$$",
"$$$$OOOOOOOOOOOOooooXXXX    ooooooooXXXX    ooooOOOOOOOOOOOO$$$$",
"$$$$OOOOOOOOOOOOooooXXXX    ooooooooXXXX    ooooOOOOOOOOOOOO$$$$",
"$$$$OOOOOOOOOOOOooooXXXX    ooooooooXXXX    ooooOOOOOOOOOOOO$$$$",
"$$$$OOOOOOOOOOOOooooXXXX    ooooooooXXXX    ooooOOOOOOOOOOOO$$$$",
"$$$$OOOOoooooooooooooooooooooooooooooooooooooooooooo....OOOO$$$$",
"$$$$OOOOoooooooooooooooooooooooooooooooooooooooooooo....OOOO$$$$",
"$$$$OOOOoooooooooooooooooooooooooooooooooooooooooooo....OOOO$$$$",
"$$$$OOOOoooooooooooooooooooooooooooooooooooooooooooo....OOOO$$$$",
"$$$$OOOOoooooooooooooooooooooooooooooooooooooooooooo....OOOO$$$$",
"$$$$OOOOoooooooooooooooooooooooooooooooooooooooooooo....OOOO$$$$",
"$$$$OOOOoooooooooooooooooooooooooooooooooooooooooooo....OOOO$$$$",
"$$$$OOOOoooooooooooooooooooooooooooooooooooooooooooo....OOOO$$$$",
"$$$$oooooooooooooooooooooooooooooooooooooooooooo............$$$$",
"$$$$oooooooooooooooooooooooooooooooooooooooooooo............$$$$",
"$$$$oooooooooooooooooooooooooooooooooooooooooooo............$$$$",
"$$$$oooooooooooooooooooooooooooooooooooooooooooo............$$$$",
"$$$$$$$$oooooooooooooooooooooooooooooooo................$$$$$$$$",
"$$$$$$$$oooooooooooooooooooooooooooooooo................$$$$$$$$",
"$$$$$$$$oooooooooooooooooooooooooooooooo................$$$$$$$$",
"$$$$$$$$oooooooooooooooooooooooooooooooo................$$$$$$$$",
"$$$$$$$$$$$$$$$$........oooo....................$$$$$$$$$$$$$$$$",
"$$$$$$$$$$$$$$$$........oooo....................$$$$$$$$$$$$$$$$",
"$$$$$$$$$$$$$$$$........oooo....................$$$$$$$$$$$$$$$$",
"$$$$$$$$$$$$$$$$........oooo....................$$$$$$$$$$$$$$$$"
};
