/* XPM */
static char *ui_heart_empty1694538281[] = {
/* columns rows colors chars-per-pixel */
"13 12 4 1 ",
"  c None",
". c #2A2A3A",
"X c #483B3A",
"o c #FDF7ED",
/* pixels */
"  ooo   ooo  ",
" o...o o...o ",
"o.XXX.o.XXX.o",
"o.XXXX.XXXX.o",
"o.XXXXXXXXX.o",
"o.XXXXXXXXX.o",
" o.XXXXXXX.o ",
"  o.XXXXX.o  ",
"   o.XXX.o   ",
"    o.X.o    ",
"     o.o     ",
"      o      "
};
