/* XPM */
static char *result[] = {
/* columns rows colors chars-per-pixel */
"32 32 7 1 ",
"  c #222222",
". c #483B3A",
"X c #775C55",
"o c #51C43F",
"O c #4BA747",
"+ c #97DA3F",
"@ c #417089",
/* pixels */
"      @@  ++OOOOooooOOOOOO      ",
"      @@  ++OOOOooooOOOOOO      ",
"  ............OOOOOO..........XX",
"  ............OOOOOO..........XX",
"..............................XX",
"..............................XX",
"..............................XX",
"..............................XX",
"  ............................XX",
"  ............................XX",
"..............................XX",
"..............................XX",
"  ..............................",
"  ..............................",
"  ............................XX",
"  ............................XX",
"  ..............................",
"  ..............................",
"................................",
"................................",
"..............................XX",
"..............................XX",
"  ..............................",
"  ..............................",
"  ..............................",
"  ..............................",
"  ............................XX",
"  ............................XX",
"  ............................XX",
"  ............................XX",
"XXXXXX....XX..XXXXXXXX..XXXXXXXX",
"XXXXXX....XX..XXXXXXXX..XXXXXXXX"
};
