/* XPM */
static char *result[] = {
/* columns rows colors chars-per-pixel */
"32 32 8 1 ",
"  c #222222",
". c #38262D",
"X c #483B3A",
"o c #775C55",
"O c #DA4E38",
"+ c #9F294E",
"@ c #DC4A7B",
"# c #B6CBCF",
/* pixels */
"oooo  oooooooooooo  oooooo  oooo",
"oooo  oooooooooooo  oooooo  oooo",
"XXXX  ##++##XXXXXX##++##XX  XXXX",
"XXXX  ##++##XXXXXX##++##XX  XXXX",
"XXXX    @@++      ++++      XXXX",
"XXXX    @@++      ++++      XXXX",
"        @@OO++++++OO++          ",
"        @@OO++++++OO++          ",
"oo  oooo@@OOOOOOOOOO++oooooooooo",
"oo  oooo@@OOOOOOOOOO++oooooooooo",
"XXXXXXXX++OOOOOOOOOO++XXXXXXXXXX",
"XXXXXXXX++OOOOOOOOOO++XXXXXXXXXX",
"XXXXXXXX@@OOOOOOOOOOXXXXXX  XXXX",
"XXXXXXXX@@OOOOOOOOOOXXXXXX  XXXX",
"        @@OOOOOOOOOO++          ",
"        @@OOOOOOOOOO++          ",
"oooooooo@@OOOOOOOOOO++oooooo  ..",
"oooooooo@@OOOOOOOOOO++oooooo  ..",
"XXXXXXXXXXOOOO++OOOO++XXXXXX  XX",
"XXXXXXXXXXOOOO++OOOO++XXXXXX  XX",
"XXXXXX  @@OO++  ++OO++XXXXXX  XX",
"XXXXXX  @@OO++  ++OO++XXXXXX  XX",
"        @@++      ++++          ",
"        @@++      ++++          ",
"oooo  oo@@  oooooo  ++oooooooooo",
"oooo  oo@@  oooooo  ++oooooooooo",
"XXXX  XX  XXXXXXXXXX  XXXXXXXXXX",
"XXXX  XX  XXXXXXXXXX  XXXXXXXXXX",
"XXXX  XXXXXXXXXX  XX  XX  XXXXXX",
"XXXX  XXXXXXXXXX  XX  XX  XXXXXX",
"                                ",
"                                "
};
