/* XPM */
static char *_0b5e0b398b5473798eb4b188cbad36aEWTxOwhhVO8VDCOy[] = {
/* columns rows colors chars-per-pixel */
"32 32 5 1 ",
"  c None",
". c #222222",
"X c #483B3A",
"o c #AA8D7A",
"O c #D3BFA9",
/* pixels */
"                                ",
"                                ",
"                                ",
"                                ",
"                                ",
"                                ",
"                                ",
"                                ",
"                                ",
"                                ",
"                                ",
"                                ",
"                                ",
"                                ",
"                                ",
"                                ",
"                                ",
"                                ",
"                                ",
"                                ",
"                                ",
"                                ",
"                                ",
"                                ",
"................................",
"................................",
"oooo..XXoooooooooo..oooooo..oooo",
"oooo..XXoooooooooo..oooooo..oooo",
"oooo..oooooooooooo..oooooo..oooo",
"oooo..oooooooooooo..oooooo..oooo",
"OOOO..OOOOOOOOXXOO..OOOOOO..OOOO",
"OOOO..OOOOOOOOXXOO..OOOOOO..OOOO"
};
