/* XPM */
static char *_a9e2fa6698649db8f349a17aed6c2dcJy9dtWRClagWt5zB[] = {
/* columns rows colors chars-per-pixel */
"32 32 4 1 ",
"  c None",
". c #222222",
"X c #AA8D7A",
"o c #D3BFA9",
/* pixels */
"..XXXXXX..                      ",
"..XXXXXX..                      ",
"..XXXXXX..                      ",
"..XXXXXX..                      ",
"..oooooo..                      ",
"..oooooo..                      ",
"..........                      ",
"..........                      ",
"..XXXXXX..                      ",
"..XXXXXX..                      ",
"..XXXXXX..                      ",
"..XXXXXX..                      ",
"..XXXXXX..                      ",
"..XXXXXX..                      ",
"..XXXXXX..                      ",
"..XXXXXX..                      ",
"..XXXXXX..                      ",
"..XXXXXX..                      ",
"..oooooo..                      ",
"..oooooo..                      ",
"..........                      ",
"..........                      ",
"..XXXXXX..                      ",
"..XXXXXX..                      ",
"..XXXXXX..                      ",
"..XXXXXX..                      ",
"..XXXXXX..                      ",
"..XXXXXX..                      ",
"..XXXXXX..                      ",
"..XXXXXX..                      ",
"..XXXXXX..                      ",
"..XXXXXX..                      "
};
