/* XPM */
static char *_a5924f54ac54c4cd4b1a6d757b7a0bcYaA5s5OjM5X7nxcO[] = {
/* columns rows colors chars-per-pixel */
"32 32 4 1 ",
"  c None",
". c #222222",
"X c #AA8D7A",
"o c #D3BFA9",
/* pixels */
"                      ..XXXXXX..",
"                      ..XXXXXX..",
"                      ..XXXXXX..",
"                      ..XXXXXX..",
"                      ..oooooo..",
"                      ..oooooo..",
"                      ..........",
"                      ..........",
"                      ..XXXXXX..",
"                      ..XXXXXX..",
"                      ..XXXXXX..",
"                      ..XXXXXX..",
"                      ..XXXXXX..",
"                      ..XXXXXX..",
"                      ..XXXXXX..",
"                      ..XXXXXX..",
"                      ..XXXXXX..",
"                      ..XXXXXX..",
"                      ..oooooo..",
"                      ..oooooo..",
"                      ..........",
"                      ..........",
"                      ..XXXXXX..",
"                      ..XXXXXX..",
"                      ..XXXXXX..",
"                      ..XXXXXX..",
"                      ..XXXXXX..",
"                      ..XXXXXX..",
"                      ..XXXXXX..",
"                      ..XXXXXX..",
"                      ..XXXXXX..",
"                      ..XXXXXX.."
};
