/* XPM */
static char *_5eda6d86c9b4b5ec70bae21c46fe95dW5Gecm46DHGAVeXN[] = {
/* columns rows colors chars-per-pixel */
"32 32 5 1 ",
"  c None",
". c #423934",
"X c #5A4E44",
"o c #796755",
"O c #A08662",
/* pixels */
" .....  ........ ......... .... ",
".XoooX..XXooooXX.XXXoooooX.oooX.",
".XoOoo.XooOOOOooXoooOOOOOOXoOoX.",
".XoOOOoOOOOOOOOOoOOOOOOOOOOOOoX.",
".XoOOOOOOOOOOOOOOOOOOOOOOOOOOoX.",
"..XOOOOOOOOOOOOOOOOOOOOOOOOOOX..",
" ..OOOOOOOOOOOOOOOOOOOOOOOOOO.. ",
"..oOOOOOOOOOOOOOOOOOOOOOOOOOOo..",
".oOOOOOOOOOOOOOOOOOOOOOOOOOOOOo.",
".oOOOOOOOOOOOOOOOOOOOOOOOOOOOOo.",
".XOOOOOOOOOOOOOOOOOOOOOOOOOOOOX.",
".XOOOOOOOOOOOOOOOOOOOOOOOOOOOOX.",
".XoOOOOOOOOOOOOOOOOOOOOOOOOOOoX.",
".XoOOOOOOOOOOOOOOOOOOOOOOOOOOoX.",
"..XOOOOOOOOOOOOOOOOOOOOOOOOOOX..",
" ..OOOOOOOOOOOOOOOOOOOOOOOOOO.. ",
" .OOOOOOOOOOOOOOOOOOOOOOOOOOOO. ",
".XOOOOOOOOOOOOOOOOOOOOOOOOOOOOX.",
".XoOOOOOOOOOOOOOOOOOOOOOOOOOOoX.",
".XoOOOOOOOOOOOOOOOOOOOOOOOOOOoX.",
"..XOOOOOOOOOOOOOOOOOOOOOOOOOOX..",
" ..OOOOOOOOOOOOOOOOOOOOOOOOOO.. ",
" .OOOOOOOOOOOOOOOOOOOOOOOOOOOO. ",
"..OOOOOOOOOOOOOOOOOOOOOOOOOOOO..",
".ooOOOoOOOOXOOOOX.OOOOO.oOOOOoo.",
".Xoooo.oooo.XOOoX.oOOOo.XoooooX.",
".XoooX.XooX.XoooX..ooo..XXoooXX.",
"..XXX..XXXX.XooXX..XXX.X.XXXXX..",
".X....X.XXX.XXoXX.X...XX......X.",
".XooooX.XX..XXXXX.XoooXXX.ooooX.",
"..XXXXXX.....XXX...XXXX...XXXX..",
" ........   .....  ....   ..... "
};
