/* XPM */
static char *result[] = {
/* columns rows colors chars-per-pixel */
"32 32 8 1 ",
"  c #222222",
". c #38262D",
"X c #483B3A",
"o c #775C55",
"O c #5956BD",
"+ c #5698CC",
"@ c #72D6CE",
"# c #B6CBCF",
/* pixels */
"oooo  oooooooooooo  oooooo  oooo",
"oooo  oooooooooooo  oooooo  oooo",
"XXXX  ##OO##XXXXXX##OO##XX  XXXX",
"XXXX  ##OO##XXXXXX##OO##XX  XXXX",
"XXXX    @@OO      OOOO      XXXX",
"XXXX    @@OO      OOOO      XXXX",
"        @@++OOOOOO++OO          ",
"        @@++OOOOOO++OO          ",
"oo  oooo@@++++++++++OOoooooooooo",
"oo  oooo@@++++++++++OOoooooooooo",
"XXXXXXXXOO++++++++++OOXXXXXXXXXX",
"XXXXXXXXOO++++++++++OOXXXXXXXXXX",
"XXXXXXXX@@++++++++++XXXXXX  XXXX",
"XXXXXXXX@@++++++++++XXXXXX  XXXX",
"        @@++++++++++OO          ",
"        @@++++++++++OO          ",
"oooooooo@@++++++++++OOoooooo  ..",
"oooooooo@@++++++++++OOoooooo  ..",
"XXXXXXXXXX++++OO++++OOXXXXXX  XX",
"XXXXXXXXXX++++OO++++OOXXXXXX  XX",
"XXXXXX  @@++OO  OO++OOXXXXXX  XX",
"XXXXXX  @@++OO  OO++OOXXXXXX  XX",
"        @@OO      OOOO          ",
"        @@OO      OOOO          ",
"oooo  oo@@  oooooo  OOoooooooooo",
"oooo  oo@@  oooooo  OOoooooooooo",
"XXXX  XX  XXXXXXXXXX  XXXXXXXXXX",
"XXXX  XX  XXXXXXXXXX  XXXXXXXXXX",
"XXXX  XXXXXXXXXX  XX  XX  XXXXXX",
"XXXX  XXXXXXXXXX  XX  XX  XXXXXX",
"                                ",
"                                "
};
